# xmcd
#
# Track frame offsets: 
#        150
#        17781
#        34492
#        50599
#        76303
#        93710
#        114746
#        135053
#        153028
#        172305
#        193868
#        207898
#
# Disc length: 3040 seconds
#
# Revision: 2
# Processed by: cddbd v1.5.2PL0 Copyright (c) Steve Scherf et al.
# Submitted via: ExactAudioCopy v1.2
#
DISCID=a20bde0c
DTITLE=Tommy Castro and The Painkillers - Stompin' Ground
DYEAR=2017
DGENRE=Blues
TTITLE0=Nonchalant
TTITLE1=Blues All Around Me
TTITLE2=Fear Is The Enemy
TTITLE3=My Old Neighborhood
TTITLE4=Enough Is Enough
TTITLE5=Love Is
TTITLE6=Rock Bottom
TTITLE7=Soul Shake
TTITLE8=Further On Down The Road
TTITLE9=Them Changes
TTITLE10=Sticks And Stones
TTITLE11=Live Every Day
EXTD=
EXTT0=
EXTT1=
EXTT2=
EXTT3=
EXTT4=
EXTT5=
EXTT6=
EXTT7=
EXTT8=
EXTT9=
EXTT10=
EXTT11=
PLAYORDER=
